# xmcd
#
# Track frame offsets: 
#        150
#        17500
#        41932
#        63582
#        107792
#        120055
#        133030
#        149560
#        168417
#        181110
#        197910
#
# Disc length: 2833 seconds
#
# Revision: 0
# Processed by: cddbd v1.5.2PL0 Copyright (c) Steve Scherf et al.
# Submitted via: ExactAudioCopy v1.0b3
#
DISCID=9a0b0f0b
DTITLE=Various Artist - Tribute To Jelly Roll Morton (Jazz Colours)
DYEAR=1998
DGENRE=Blues
TTITLE0=Red Mason's Hot Seven - Don't You Leave Me Here
TTITLE1=Max Collie's Rhythm Aces - Milneberg Joys
TTITLE2=Red Mason's Hot Five - Wolverine Blues
TTITLE3=Max Collie's Rhythm Aces - Winin' Boy Blues
TTITLE4=Duncan Swift - Grandpa's Spells
TTITLE5=Duncan Swift - The Crave
TTITLE6=Red Mason's Hot Seven - Kansas City Stomps
TTITLE7=Red Mason's Hot Seven - Dead Man Blues
TTITLE8=Jimmy Witherspoon - The Jay McShann Orchestra - Frog-I-More Rag
TTITLE9=Red Mason's Hot Five - Wild Man Blues
TTITLE10=Red Mason's Hot Five - Sweet Substitute
EXTD=
EXTT0=
EXTT1=
EXTT2=
EXTT3=
EXTT4=
EXTT5=
EXTT6=
EXTT7=
EXTT8=
EXTT9=
EXTT10=
PLAYORDER=
